<svg width="15" height="13" viewBox="0 0 15 13" fill="none" xmlns="http://www.w3.org/2000/svg">
<path d="M2.40055 7.20313H10.5467C10.935 7.20313 11.2498 6.88832 11.2498 6.50001C11.2498 6.1117 10.935 5.79689 10.5467 5.79689H2.40055L3.30964 4.8878C3.58423 4.61321 3.58423 4.16804 3.30964 3.89344C3.03509 3.61885 2.58987 3.61885 2.31528 3.89344L0.206014 6.00276C0.189561 6.01921 0.173999 6.03646 0.15928 6.05446C0.152858 6.06229 0.14728 6.07059 0.141233 6.0786C0.133499 6.08891 0.12553 6.09899 0.118359 6.10973C0.111796 6.11952 0.106124 6.1297 0.100124 6.13973C0.0943588 6.14938 0.0883119 6.15881 0.0830151 6.16874C0.0774839 6.17906 0.0728433 6.18965 0.0678746 6.20015C0.0629996 6.21041 0.0578903 6.22054 0.0535309 6.23104C0.0493122 6.2413 0.0458435 6.25176 0.0421404 6.26216C0.0380623 6.27341 0.0337498 6.28452 0.0302811 6.29601C0.0271405 6.30641 0.0248436 6.31696 0.0222186 6.32751C0.0192655 6.33918 0.0159843 6.3508 0.0136405 6.36271C0.0112499 6.37485 0.00979681 6.38713 0.00806245 6.39937C0.00656246 6.40982 0.00454685 6.42013 0.0035156 6.43072C0.00126562 6.45341 9.37494e-05 6.47624 4.68747e-05 6.49902C4.68747e-05 6.49935 0 6.49972 0 6.50005C0 6.50038 4.68747e-05 6.50076 4.68747e-05 6.50108C9.37494e-05 6.52391 0.00126562 6.54669 0.0035156 6.56943C0.00454685 6.57988 0.00651558 6.59005 0.0079687 6.60041C0.00974994 6.61279 0.0112031 6.62516 0.0136405 6.63744C0.0159843 6.64926 0.0192186 6.66069 0.0221717 6.67227C0.0248436 6.68291 0.0271873 6.69365 0.0303748 6.70419C0.0337967 6.71549 0.0380623 6.72641 0.0419997 6.73747C0.0457966 6.74807 0.0492653 6.75871 0.0535778 6.76911C0.0578434 6.77943 0.062859 6.78932 0.0676402 6.79939C0.0727027 6.81013 0.0774839 6.82096 0.0831088 6.8315C0.0882651 6.84111 0.0941244 6.85025 0.0997025 6.85958C0.105843 6.86994 0.111702 6.88039 0.118452 6.89047C0.125296 6.90074 0.132937 6.91035 0.140296 6.92024C0.146671 6.92872 0.152577 6.93749 0.159374 6.94574C0.17339 6.9628 0.188249 6.97916 0.203764 6.99486C0.204514 6.99561 0.205124 6.99646 0.205874 6.99721L2.31524 9.10661C2.45258 9.24391 2.63248 9.31258 2.81244 9.31258C2.99234 9.31254 3.17234 9.24391 3.30959 9.10666C3.58418 8.83207 3.58418 8.3869 3.30964 8.11231L2.40055 7.20313Z" fill="black"/>
<path d="M14.2968 0.171875H5.39062C5.00231 0.171875 4.6875 0.486686 4.6875 0.874996V3.68748C4.6875 4.07579 5.00231 4.3906 5.39062 4.3906C5.77893 4.3906 6.09374 4.07579 6.09374 3.68748V1.57812H13.5937V11.4219H6.09374V9.31244C6.09374 8.92413 5.77893 8.60932 5.39062 8.60932C5.00231 8.60932 4.6875 8.92413 4.6875 9.31244V12.125C4.6875 12.5133 5.00231 12.8281 5.39062 12.8281H14.2968C14.6851 12.8281 14.9999 12.5133 14.9999 12.125V0.874996C14.9999 0.486686 14.6851 0.171875 14.2968 0.171875Z" fill="black"/>
</svg>
